<?xml version="1.0" encoding="UTF-8" standalone="no"?>
<svg
   class="ionicon"
   viewBox="0 0 512 512"
   version="1.1"
   id="svg1"
   sodipodi:docname="messages.svg"
   inkscape:version="1.3.1 (91b66b0, 2023-11-16)"
   xmlns:inkscape="http://www.inkscape.org/namespaces/inkscape"
   xmlns:sodipodi="http://sodipodi.sourceforge.net/DTD/sodipodi-0.dtd"
   xmlns="http://www.w3.org/2000/svg"
   xmlns:svg="http://www.w3.org/2000/svg">
  <defs
     id="defs1" />
  <sodipodi:namedview
     id="namedview1"
     pagecolor="#ffffff"
     bordercolor="#000000"
     borderopacity="0.25"
     inkscape:showpageshadow="2"
     inkscape:pageopacity="0.0"
     inkscape:pagecheckerboard="0"
     inkscape:deskcolor="#d1d1d1"
     inkscape:zoom="2.296875"
     inkscape:cx="255.78231"
     inkscape:cy="256"
     inkscape:window-width="2490"
     inkscape:window-height="1376"
     inkscape:window-x="0"
     inkscape:window-y="0"
     inkscape:window-maximized="1"
     inkscape:current-layer="svg1" />
  <path
     d="M408 48H104a72.08 72.08 0 00-72 72v192a72.08 72.08 0 0072 72h24v64a16 16 0 0026.25 12.29L245.74 384H408a72.08 72.08 0 0072-72V120a72.08 72.08 0 00-72-72zM160 248a32 32 0 1132-32 32 32 0 01-32 32zm96 0a32 32 0 1132-32 32 32 0 01-32 32zm96 0a32 32 0 1132-32 32 32 0 01-32 32z"
     id="path1"
     style="fill:#ffffff" />
</svg>
