<?xml version="1.0" encoding="UTF-8" standalone="no"?>
<svg
   class="ionicon"
   viewBox="0 0 512 512"
   version="1.1"
   id="svg1"
   sodipodi:docname="privacy-black.svg"
   inkscape:version="1.3.1 (91b66b0, 2023-11-16)"
   xmlns:inkscape="http://www.inkscape.org/namespaces/inkscape"
   xmlns:sodipodi="http://sodipodi.sourceforge.net/DTD/sodipodi-0.dtd"
   xmlns="http://www.w3.org/2000/svg"
   xmlns:svg="http://www.w3.org/2000/svg">
  <defs
     id="defs1" />
  <sodipodi:namedview
     id="namedview1"
     pagecolor="#ffffff"
     bordercolor="#000000"
     borderopacity="0.25"
     inkscape:showpageshadow="2"
     inkscape:pageopacity="0.0"
     inkscape:pagecheckerboard="0"
     inkscape:deskcolor="#d1d1d1"
     inkscape:zoom="2.296875"
     inkscape:cx="256.43537"
     inkscape:cy="256.21769"
     inkscape:window-width="1504"
     inkscape:window-height="1289"
     inkscape:window-x="26"
     inkscape:window-y="23"
     inkscape:window-maximized="0"
     inkscape:current-layer="svg1" />
  <path
     d="M479.07 111.36a16 16 0 00-13.15-14.74c-86.5-15.52-122.61-26.74-203.33-63.2a16 16 0 00-13.18 0C168.69 69.88 132.58 81.1 46.08 96.62a16 16 0 00-13.15 14.74c-3.85 61.11 4.36 118.05 24.43 169.24A349.47 349.47 0 00129 393.11c53.47 56.73 110.24 81.37 121.07 85.73a16 16 0 0012 0c10.83-4.36 67.6-29 121.07-85.73a349.47 349.47 0 0071.5-112.51c20.07-51.19 28.28-108.13 24.43-169.24zm-131 75.11l-110.8 128a16 16 0 01-11.41 5.53h-.66a16 16 0 01-11.2-4.57l-49.2-48.2a16 16 0 1122.4-22.86l37 36.29 99.7-115.13a16 16 0 0124.2 20.94z"
     id="path1"
     style="fill:#2c2b2b;fill-opacity:1" />
</svg>
