<?xml version="1.0" encoding="UTF-8" standalone="no"?>
<svg
   class="ionicon"
   viewBox="0 0 512 512"
   version="1.1"
   id="svg1"
   sodipodi:docname="sun.svg"
   inkscape:version="1.3.1 (91b66b0, 2023-11-16)"
   xmlns:inkscape="http://www.inkscape.org/namespaces/inkscape"
   xmlns:sodipodi="http://sodipodi.sourceforge.net/DTD/sodipodi-0.dtd"
   xmlns="http://www.w3.org/2000/svg"
   xmlns:svg="http://www.w3.org/2000/svg">
  <defs
     id="defs1" />
  <sodipodi:namedview
     id="namedview1"
     pagecolor="#ffffff"
     bordercolor="#000000"
     borderopacity="0.25"
     inkscape:showpageshadow="2"
     inkscape:pageopacity="0.0"
     inkscape:pagecheckerboard="0"
     inkscape:deskcolor="#d1d1d1"
     inkscape:zoom="2.296875"
     inkscape:cx="256"
     inkscape:cy="256"
     inkscape:window-width="2490"
     inkscape:window-height="1376"
     inkscape:window-x="0"
     inkscape:window-y="0"
     inkscape:window-maximized="1"
     inkscape:current-layer="svg1" />
  <path
     d="M234 26h44v92h-44zM234 394h44v92h-44zM338.025 142.857l65.054-65.054 31.113 31.113-65.054 65.054zM77.815 403.074l65.054-65.054 31.113 31.113-65.054 65.054zM394 234h92v44h-92zM26 234h92v44H26zM338.029 369.14l31.112-31.113 65.054 65.054-31.112 31.112zM77.802 108.92l31.113-31.113 65.054 65.054-31.113 31.112zM256 358a102 102 0 11102-102 102.12 102.12 0 01-102 102z"
     id="path1"
     style="fill:#ffdd55" />
</svg>
