<?xml version="1.0" encoding="UTF-8" standalone="no"?>
<svg
   class="ionicon"
   viewBox="0 0 512 512"
   version="1.1"
   id="svg1"
   sodipodi:docname="tasks-black.svg"
   inkscape:version="1.3.1 (91b66b0, 2023-11-16)"
   xmlns:inkscape="http://www.inkscape.org/namespaces/inkscape"
   xmlns:sodipodi="http://sodipodi.sourceforge.net/DTD/sodipodi-0.dtd"
   xmlns="http://www.w3.org/2000/svg"
   xmlns:svg="http://www.w3.org/2000/svg">
  <defs
     id="defs1" />
  <sodipodi:namedview
     id="namedview1"
     pagecolor="#ffffff"
     bordercolor="#000000"
     borderopacity="0.25"
     inkscape:showpageshadow="2"
     inkscape:pageopacity="0.0"
     inkscape:pagecheckerboard="0"
     inkscape:deskcolor="#d1d1d1"
     inkscape:zoom="2.296875"
     inkscape:cx="256.43537"
     inkscape:cy="256.21769"
     inkscape:window-width="1504"
     inkscape:window-height="1289"
     inkscape:window-x="26"
     inkscape:window-y="23"
     inkscape:window-maximized="0"
     inkscape:current-layer="svg1" />
  <path
     d="M80 480a16 16 0 01-16-16V68.13a24 24 0 0111.9-20.72C88 40.38 112.38 32 160 32c37.21 0 78.83 14.71 115.55 27.68C305.12 70.13 333.05 80 352 80a183.84 183.84 0 0071-14.5 18 18 0 0125 16.58v219.36a20 20 0 01-12 18.31c-8.71 3.81-40.51 16.25-84 16.25-24.14 0-54.38-7.14-86.39-14.71C229.63 312.79 192.43 304 160 304c-36.87 0-55.74 5.58-64 9.11V464a16 16 0 01-16 16z"
     id="path1"
     style="fill:#2c2b2b;fill-opacity:1" />
</svg>
